<svg width="204px" height="24px">
  <symbol id="Rating" class="default" viewBox="0 0 204 24" preserveAspectRatio="xMidYMid meet">
    <path d="M47.6,4.2L36.4,23.3c-0.3,0.5-0.8,0.7-1.3,0.7H2.9c-0.5,0-1-0.3-1.3-0.7l-1.2-1.9c-0.3-0.5-0.3-1.1,0-1.5L11.6,0.7C11.8,0.3,12.3,0,12.9,0h32.2c0.5,0,1,0.3,1.3,0.7l1.2,1.9C47.8,3.1,47.8,3.7,47.6,4.2z"/>
    <path d="M86.6,4.2L75.4,23.3c-0.3,0.5-0.8,0.7-1.3,0.7H41.9c-0.5,0-1-0.3-1.3-0.7l-1.2-1.9c-0.3-0.5-0.3-1.1,0-1.5L50.6,0.7C50.8,0.3,51.3,0,51.9,0h32.2c0.5,0,1,0.3,1.3,0.7l1.2,1.9C86.8,3.1,86.8,3.7,86.6,4.2z"/>
    <path d="M125.6,4.2l-11.1,19.1c-0.3,0.5-0.8,0.7-1.3,0.7H80.9c-0.5,0-1-0.3-1.3-0.7l-1.2-1.9c-0.3-0.5-0.3-1.1,0-1.5L89.6,0.7C89.8,0.3,90.3,0,90.9,0h32.2c0.5,0,1,0.3,1.3,0.7l1.2,1.9C125.8,3.1,125.8,3.7,125.6,4.2z"/>
    <path d="M164.6,4.2l-11.1,19.1c-0.3,0.5-0.8,0.7-1.3,0.7h-32.2c-0.5,0-1-0.3-1.3-0.7l-1.2-1.9c-0.3-0.5-0.3-1.1,0-1.5l11.1-19.1c0.3-0.5,0.8-0.7,1.3-0.7h32.2c0.5,0,1,0.3,1.3,0.7l1.2,1.9C164.8,3.1,164.8,3.7,164.6,4.2z"/>
    <path d="M203.6,4.2l-11.1,19.1c-0.3,0.5-0.8,0.7-1.3,0.7h-32.2c-0.5,0-1-0.3-1.3-0.7l-1.2-1.9c-0.3-0.5-0.3-1.1,0-1.5l11.1-19.1c0.3-0.5,0.8-0.7,1.3-0.7h32.2c0.5,0,1,0.3,1.3,0.7l1.2,1.9C203.8,3.1,203.8,3.7,203.6,4.2z"/>
  </symbol>
</svg>
